<?xml version="1.0" encoding="UTF-8" standalone="no"?>
<!-- Created with Inkscape (http://www.inkscape.org/) -->

<svg
   width="97.784424mm"
   height="97.755112mm"
   viewBox="0 0 97.784424 97.755112"
   version="1.1"
   id="svg1"
   inkscape:version="1.3 (0e150ed6c4, 2023-07-21)"
   sodipodi:docname="c90.svg"
   xmlns:inkscape="http://www.inkscape.org/namespaces/inkscape"
   xmlns:sodipodi="http://sodipodi.sourceforge.net/DTD/sodipodi-0.dtd"
   xmlns="http://www.w3.org/2000/svg"
   xmlns:svg="http://www.w3.org/2000/svg">
  <sodipodi:namedview
     id="namedview1"
     pagecolor="#505050"
     bordercolor="#ffffff"
     borderopacity="1"
     inkscape:showpageshadow="0"
     inkscape:pageopacity="0"
     inkscape:pagecheckerboard="1"
     inkscape:deskcolor="#505050"
     inkscape:document-units="mm"
     inkscape:zoom="0.70710678"
     inkscape:cx="365.57421"
     inkscape:cy="269.40768"
     inkscape:window-width="1920"
     inkscape:window-height="1017"
     inkscape:window-x="-8"
     inkscape:window-y="-8"
     inkscape:window-maximized="1"
     inkscape:current-layer="layer1"
     showgrid="false" />
  <defs
     id="defs1">
    <pattern
       id="EMFhbasepattern"
       patternUnits="userSpaceOnUse"
       width="6"
       height="6"
       x="0"
       y="0" />
    <pattern
       id="EMFhbasepattern-3"
       patternUnits="userSpaceOnUse"
       width="6"
       height="6"
       x="0"
       y="0" />
    <pattern
       id="EMFhbasepattern-6"
       patternUnits="userSpaceOnUse"
       width="6"
       height="6"
       x="0"
       y="0" />
    <pattern
       id="EMFhbasepattern-35"
       patternUnits="userSpaceOnUse"
       width="6"
       height="6"
       x="0"
       y="0" />
  </defs>
  <g
     inkscape:label="Camada 1"
     inkscape:groupmode="layer"
     id="layer1"
     transform="translate(-106.57739,18.813978)">
    <path
       fill="none" stroke="param(outline) #000" stroke-width="param(outline-width) 1"
       d="m 106.70968,42.556669 0.56107,-0.01058 0.56106,-0.04231 0.56107,-0.06347 0.55048,-0.08463 0.55048,-0.116364 0.5399,-0.13752 0.53989,-0.158676 0.52931,-0.179832 0.51872,-0.211568 0.50814,-0.232725 0.50814,-0.253881 0.48696,-0.275037 0.47638,-0.296196 0.45521,-0.32793 0.44461,-0.33851 0.43404,-0.359664 0.41286,-0.370245 0.40227,-0.401979 0.37052,-0.412557 0.35993,-0.433715 0.33876,-0.444294 0.32817,-0.454869 0.29641,-0.47603 0.27524,-0.486606 0.25407,-0.507762 0.2329,-0.507764 0.21172,-0.51834 0.17996,-0.528921 0.1588,-0.539499 0.13762,-0.539498 0.11644,-0.550077 0.0847,-0.550077 0.0635,-0.560654 0.0423,-0.560655 0.0106,-0.560657 -0.0106,-0.560655 -0.0423,-0.560655 -0.0635,-0.560655 -0.0847,-0.550076 -0.11644,-0.550077 -0.13762,-0.539499 -0.1588,-0.539498 -0.17996,-0.528921 -0.21172,-0.51834 -0.2329,-0.507764 -0.25407,-0.507762 -0.27524,-0.486609 -0.29641,-0.476027 -0.32817,-0.454869 -0.33876,-0.444294 -0.35993,-0.433716 -0.37052,-0.412557 -0.40227,-0.401978 -0.41286,-0.370245 -0.43404,-0.359664 -0.44461,-0.338511 -0.45521,-0.327929 -0.47638,-0.296196 -0.48696,-0.275037 -0.50814,-0.253884 -0.50814,-0.232725 -0.51872,-0.211566 -0.52931,-0.179834 -0.53989,-0.158676 -0.5399,-0.137518 -0.55048,-0.116363 -0.55048,-0.08463 -0.56107,-0.06347 -0.56106,-0.04231 -0.56107,-0.01058"
       id="path1-4" />
    <path
       fill="none" stroke="param(outline) #000" stroke-width="param(outline-width) 1"
       d="m 154.79208,66.326333 -0.21172,-1.036682 -0.24348,-1.047261 -0.27524,-1.026104 -0.28583,-1.026107 -0.31758,-1.015527 -0.33876,-1.015526 -0.37052,-1.004946 -0.3811,-0.99437 -0.41286,-0.983793 -0.43403,-0.973211 -0.45521,-0.962636 -0.48696,-0.952056 -0.49755,-0.941477 -0.52931,-0.9309 -0.5399,-0.90974 -0.57165,-0.909744 -0.59282,-0.888584 -0.60342,-0.87801 -0.63517,-0.856847 -0.64576,-0.846273 -0.67751,-0.825116 -0.6881,-0.814536 -0.70928,-0.80396 -0.73044,-0.772221 -0.74103,-0.772223 -0.76221,-0.74049 -0.78338,-0.729909 -0.79396,-0.708752 -0.81513,-0.687597 -0.83631,-0.66644 -0.8469,-0.65586 -0.85748,-0.624126 -0.87865,-0.613547 -0.88924,-0.581811 -0.91041,-0.571233 -0.91041,-0.550079 -0.93158,-0.51834 -0.94217,-0.507764 -0.95276,-0.476028 -0.96334,-0.454872 -0.97393,-0.433713 -0.9951,-0.412557 -0.98451,-0.3914 -1.00569,-0.359667 -1.01627,-0.338508 -1.01627,-0.317352 -1.02686,-0.296196 -1.03745,-0.264461 -1.03744,-0.243303 -1.04803,-0.222144"
       id="path2-2" />
    <path
       fill="none" stroke="param(outline) #000" stroke-width="param(outline-width) 1"
       d="m 167.97187,78.808846 -0.0106,-0.560655 -0.0423,-0.560655 -0.0635,-0.560657 -0.0847,-0.550077 -0.11644,-0.550077 -0.13762,-0.539498 -0.15879,-0.539496 -0.17996,-0.528921 -0.21173,-0.518342 -0.23289,-0.507762 -0.25407,-0.507765 -0.27524,-0.486606 -0.29641,-0.476027 -0.32817,-0.454872 -0.33876,-0.444294 -0.35993,-0.433713 -0.37052,-0.412557 -0.40227,-0.401981 -0.41286,-0.370242 -0.43404,-0.359667 -0.44462,-0.338508 -0.4552,-0.327929 -0.47638,-0.296196 -0.48696,-0.27504 -0.50814,-0.253881 -0.50814,-0.232725 -0.51872,-0.211568 -0.52931,-0.179832 -0.53989,-0.158676 -0.5399,-0.13752 -0.55048,-0.116361 -0.55048,-0.08463 -0.56107,-0.06347 -0.56106,-0.04232 -0.56107,-0.01058 -0.56107,0.01058 -0.56106,0.04232 -0.56107,0.06347 -0.55048,0.08463 -0.55049,0.116361 -0.53989,0.13752 -0.53989,0.158676 -0.52931,0.179832 -0.51873,0.211568 -0.50813,0.232725 -0.50814,0.253881 -0.48696,0.27504 -0.47638,0.296196 -0.45521,0.327929 -0.44462,0.338508 -0.43403,0.359667 -0.41286,0.370242 -0.40227,0.401981 -0.37052,0.412557 -0.35993,0.433713 -0.33876,0.444294 -0.32817,0.454872 -0.29641,0.476027 -0.27524,0.486606 -0.25407,0.507765 -0.2329,0.507762 -0.21172,0.518342 -0.17996,0.528921 -0.1588,0.539496 -0.13762,0.539498 -0.11645,0.550077 -0.0847,0.550077 -0.0635,0.560657 -0.0423,0.560655 -0.0106,0.560655"
       id="path3-8" />
  </g>
</svg>
