<?xml version="1.0" encoding="UTF-8" standalone="no"?>
<!-- Created with Inkscape (http://www.inkscape.org/) -->

<svg
   width="97.615013mm"
   height="97.607048mm"
   viewBox="0 0 97.615013 97.607048"
   version="1.1"
   id="svg1"
   inkscape:version="1.3 (0e150ed6c4, 2023-07-21)"
   sodipodi:docname="cruzeta.svg"
   xmlns:inkscape="http://www.inkscape.org/namespaces/inkscape"
   xmlns:sodipodi="http://sodipodi.sourceforge.net/DTD/sodipodi-0.dtd"
   xmlns="http://www.w3.org/2000/svg"
   xmlns:svg="http://www.w3.org/2000/svg">
  <sodipodi:namedview
     id="namedview1"
     pagecolor="#505050"
     bordercolor="#ffffff"
     borderopacity="1"
     inkscape:showpageshadow="0"
     inkscape:pageopacity="0"
     inkscape:pagecheckerboard="1"
     inkscape:deskcolor="#505050"
     inkscape:document-units="mm"
     inkscape:zoom="0.70710678"
     inkscape:cx="625.7895"
     inkscape:cy="197.28279"
     inkscape:window-width="1920"
     inkscape:window-height="1017"
     inkscape:window-x="-8"
     inkscape:window-y="-8"
     inkscape:window-maximized="1"
     inkscape:current-layer="layer1"
     showgrid="false" />
  <defs
     id="defs1">
    <pattern
       id="EMFhbasepattern"
       patternUnits="userSpaceOnUse"
       width="6"
       height="6"
       x="0"
       y="0" />
    <pattern
       id="EMFhbasepattern-3"
       patternUnits="userSpaceOnUse"
       width="6"
       height="6"
       x="0"
       y="0" />
  </defs>
  <g
     inkscape:label="Camada 1"
     inkscape:groupmode="layer"
     id="layer1"
     transform="translate(48.807513,48.803522)">
    <path
       fill="none"
       stroke="param(outline) #000"
       stroke-width="param(outline-width) 1"
       d="M 22.09335,0 H -22.09334"
       id="path1"
       fill="none" stroke="param(outline) #000" stroke-width="param(outline-width) 1" />
    <path
       fill="none"
       stroke="param(outline) #000"
       stroke-width="param(outline-width) 1"
       d="m 48.248047,-26.695312 -0.814453,0.02148 a 0.13230472,0.13230472 0 0 0 -0.0039,0 l -0.814453,0.04297 a 0.13230472,0.13230472 0 0 0 -0.0059,0 l -0.804688,0.07422 a 0.13230472,0.13230472 0 0 0 -0.002,0 l -0.804687,0.08398 a 0.13230472,0.13230472 0 0 0 -0.0059,0.002 L 44.1875,-26.34375 a 0.13230472,0.13230472 0 0 0 -0.002,0 l -0.804688,0.136719 a 0.13230472,0.13230472 0 0 0 -0.0059,0.002 l -0.792969,0.169922 a 0.13230472,0.13230472 0 0 0 -0.0039,0 l -0.792969,0.189453 a 0.13230472,0.13230472 0 0 0 -0.0059,0.002 l -0.783203,0.222656 a 0.13230472,0.13230472 0 0 0 -0.002,0 l -0.773438,0.232422 a 0.13230472,0.13230472 0 0 0 -0.0039,0.002 l -0.763672,0.265625 a 0.13230472,0.13230472 0 0 0 -0.0039,0.002 l -0.761719,0.294922 a 0.13230472,0.13230472 0 0 0 -0.002,0.002 l -0.751953,0.306641 a 0.13230472,0.13230472 0 0 0 -0.0059,0.002 l -0.740234,0.337891 a 0.13230472,0.13230472 0 0 0 -0.002,0.002 l -0.730469,0.347656 a 0.13230472,0.13230472 0 0 0 -0.0059,0.0039 l -0.71875,0.38086 a 0.13230472,0.13230472 0 0 0 -0.0039,0 l -0.708984,0.402344 a 0.13230472,0.13230472 0 0 0 -0.0039,0.0039 l -0.689453,0.421875 a 0.13230472,0.13230472 0 0 0 -0.002,0.002 l -0.677735,0.445312 a 0.13230472,0.13230472 0 0 0 -0.0039,0.002 l -0.666016,0.464843 a 0.13230472,0.13230472 0 0 0 -0.002,0.002 l -0.65625,0.476563 a 0.13230472,0.13230472 0 0 0 -0.0059,0.002 l -0.634766,0.507813 a 0.13230472,0.13230472 0 0 0 -0.002,0.0039 l -0.625,0.527344 a 0.13230472,0.13230472 0 0 0 -0.0039,0.0039 l -0.603516,0.539062 a 0.13230472,0.13230472 0 0 0 -0.002,0.0039 l -0.582031,0.560546 a 0.13230472,0.13230472 0 0 0 -0.0039,0.002 l -0.570313,0.582031 a 0.13230472,0.13230472 0 0 0 -0.0039,0.002 l -0.550781,0.59375 a 0.13230472,0.13230472 0 0 0 -0.002,0.002 l -0.539062,0.613281 a 0.13230472,0.13230472 0 0 0 -0.0039,0.0039 l -0.507813,0.625 a 0.13230472,0.13230472 0 0 0 -0.002,0.002 l -0.498047,0.644531 a 0.13230472,0.13230472 0 0 0 -0.002,0.0039 l -0.476562,0.65625 a 0.13230472,0.13230472 0 0 0 -0.002,0.0039 l -0.457031,0.675782 a 0.13230472,0.13230472 0 0 0 -0.002,0.0059 l -0.423828,0.6875 a 0.13230472,0.13230472 0 0 0 0,0.002 l -0.414063,0.697266 a 0.13230472,0.13230472 0 0 0 -0.002,0.0039 l -0.390625,0.708984 a 0.13230472,0.13230472 0 0 0 -0.002,0.0039 l -0.371094,0.730468 a 0.13230472,0.13230472 0 0 0 -0.002,0.0039 l -0.339843,0.728515 a 0.13230472,0.13230472 0 0 0 0,0.0039 l -0.328125,0.75 a 0.13230472,0.13230472 0 0 0 -0.002,0.0059 l -0.296875,0.7499999 a 0.13230472,0.13230472 0 0 0 -0.002,0.00391 l -0.27539,0.7617188 a 0.13230472,0.13230472 0 0 0 0,0.00391 l -0.253907,0.7714844 a 0.13230472,0.13230472 0 0 0 -0.002,0.00586 L 22.908203,-7.25 a 0.13230472,0.13230472 0 0 0 0,0.00195 l -0.212891,0.78125 a 0.13230472,0.13230472 0 0 0 0,0.00586 l -0.179687,0.7929688 a 0.13230472,0.13230472 0 0 0 -0.002,0.00586 l -0.148438,0.7929688 a 0.13230472,0.13230472 0 0 0 0,0.00195 L 22.228516,-4.0625 a 0.13230472,0.13230472 0 0 0 -0.002,0.00391 l -0.105468,0.8046874 a 0.13230472,0.13230472 0 0 0 0,0.00391 l -0.07422,0.8046875 a 0.13230472,0.13230472 0 0 0 0,0.00391 l -0.05469,0.8144532 a 0.13230472,0.13230472 0 0 0 0,0.00391 l -0.03125,0.81445315 a 0.13230472,0.13230472 0 0 0 0,0.001953 l -0.0098,0.8046875 a 0.13230472,0.13230472 0 0 0 0,0.00585938 l 0.02148,0.81445313 a 0.13230472,0.13230472 0 0 0 0,0.003906 l 0.04102,0.81445307 a 0.13230472,0.13230472 0 0 0 0,0.00391 l 0.07422,0.8046875 a 0.13230472,0.13230472 0 0 0 0,0.00195 L 22.173828,3.25 a 0.13230472,0.13230472 0 0 0 0,0.00781 L 22.300781,4.0625 22.439453,4.8671875 a 0.13230472,0.13230472 0 0 0 0,0.00586 l 0.169922,0.7929687 a 0.13230472,0.13230472 0 0 0 0.002,0.00391 l 0.189453,0.7832031 a 0.13230472,0.13230472 0 0 0 0.002,0.00391 l 0.222657,0.7832032 a 0.13230472,0.13230472 0 0 0 0,0.00391 l 0.24414,0.78125 a 0.13230472,0.13230472 0 0 0 0,0.00391 l 0.265625,0.7617187 a 0.13230472,0.13230472 0 0 0 0.002,0.00391 l 0.285157,0.7617187 a 0.13230472,0.13230472 0 0 0 0.002,0.00391 l 0.30664,0.7500001 a 0.13230472,0.13230472 0 0 0 0.002,0.0059 l 0.337891,0.740235 a 0.13230472,0.13230472 0 0 0 0.002,0.002 l 0.34961,0.730469 a 0.13230472,0.13230472 0 0 0 0.002,0.0059 l 0.380859,0.707031 a 0.13230472,0.13230472 0 0 0 0.002,0.0039 l 0.402344,0.708985 a 0.13230472,0.13230472 0 0 0 0.002,0.002 l 0.423828,0.699219 a 0.13230472,0.13230472 0 0 0 0.002,0.0039 l 0.445313,0.677734 a 0.13230472,0.13230472 0 0 0 0.002,0.002 l 0.464844,0.666016 a 0.13230472,0.13230472 0 0 0 0.0039,0.0039 l 0.486328,0.646485 a 0.13230472,0.13230472 0 0 0 0.002,0.002 l 0.498047,0.634765 a 0.13230472,0.13230472 0 0 0 0.002,0.0039 l 0.529297,0.623046 a 0.13230472,0.13230472 0 0 0 0.002,0.0039 l 0.541016,0.601562 a 0.13230472,0.13230472 0 0 0 0.002,0.0039 l 0.560547,0.591797 a 0.13230472,0.13230472 0 0 0 0.0059,0.0039 l 0.582031,0.560546 a 0.13230472,0.13230472 0 0 0 0,0.002 l 0.59375,0.560546 a 0.13230472,0.13230472 0 0 0 0.0039,0.0039 L 31.375,20.041016 a 0.13230472,0.13230472 0 0 0 0.0039,0.002 l 0.636719,0.507812 a 0.13230472,0.13230472 0 0 0 0,0.002 l 0.646484,0.498047 a 0.13230472,0.13230472 0 0 0 0.0039,0.002 l 0.65625,0.476563 a 0.13230472,0.13230472 0 0 0 0.0039,0.002 l 0.677734,0.455078 a 0.13230472,0.13230472 0 0 0 0.002,0.002 l 0.677735,0.433594 a 0.13230472,0.13230472 0 0 0 0.0059,0.0039 l 0.708984,0.400391 a 0.13230472,0.13230472 0 0 0 0.002,0.002 l 0.708984,0.390625 a 0.13230472,0.13230472 0 0 0 0.0039,0.002 l 0.71875,0.371094 a 0.13230472,0.13230472 0 0 0 0.0059,0.002 l 0.740234,0.337891 a 0.13230472,0.13230472 0 0 0 0.002,0.002 l 0.742188,0.328125 a 0.13230472,0.13230472 0 0 0 0.0039,0.002 l 0.763672,0.294922 a 0.13230472,0.13230472 0 0 0 0.002,0.002 l 0.761719,0.27539 a 0.13230472,0.13230472 0 0 0 0.0039,0 l 0.773437,0.253907 a 0.13230472,0.13230472 0 0 0 0.0059,0.002 l 0.783203,0.222656 a 0.13230472,0.13230472 0 0 0 0.002,0 l 0.783203,0.212891 a 0.13230472,0.13230472 0 0 0 0.0039,0 l 0.794922,0.179687 a 0.13230472,0.13230472 0 0 0 0.0039,0.002 l 0.794922,0.148438 a 0.13230472,0.13230472 0 0 0 0.002,0 l 0.804688,0.136719 a 0.13230472,0.13230472 0 0 0 0.0039,0.002 l 0.804688,0.105468 a 0.13230472,0.13230472 0 0 0 0.0059,0 l 0.804688,0.07422 a 0.13230472,0.13230472 0 0 0 0.0039,0 l 0.814453,0.05273 a 0.13230472,0.13230472 0 0 0 0.0039,0 l 0.814453,0.0332 a 0.13230472,0.13230472 0 0 0 0.0039,0 l 0.804687,0.0098 a 0.1322915,0.1322915 0 0 0 0.132813,-0.130859 0.1322915,0.1322915 0 0 0 -0.128907,-0.132813 L 47.875,25.996094 47.0625,25.964844 46.25,25.912109 45.451172,25.837891 44.650391,25.732422 43.849609,25.595703 43.058594,25.449219 42.271484,25.269531 41.490234,25.060547 40.710937,24.837891 39.941406,24.585937 39.183594,24.3125 38.425781,24.017578 37.6875,23.691406 36.951172,23.353516 36.234375,22.986328 35.527344,22.595703 34.822266,22.197266 34.148437,21.765625 33.474609,21.3125 32.822266,20.839844 32.179687,20.34375 31.546875,19.837891 30.9375,19.3125 30.345703,18.755859 29.767578,18.197266 29.208984,17.607422 28.671875,17.007812 28.144531,16.386719 27.650391,15.755859 27.166016,15.113281 26.701172,14.449219 26.259766,13.777344 25.837891,13.082031 25.4375,12.376953 25.058594,11.671875 24.710937,10.945313 24.375,10.208984 24.068359,9.4609375 23.785156,8.703125 23.521484,7.9453125 23.279297,7.1660156 23.056641,6.3867187 22.867187,5.609375 22.699219,4.8203125 22.5625,4.0195312 22.435547,3.21875 22.351562,2.4199219 22.277344,1.6191406 22.236328,0.80859375 22.214844,0 l 0.01172,-0.80078125 0.03125,-0.81054685 0.05273,-0.8105469 0.07227,-0.8007813 0.105469,-0.7988281 0.136719,-0.8007812 0.148437,-0.7890625 0.179688,-0.7890625 0.208984,-0.7792969 0.222657,-0.7792969 0.251953,-0.7675781 0.273437,-0.7578125 0.294922,-0.746094 0.328125,-0.748047 0.335938,-0.726562 0.36914,-0.726563 0.388672,-0.705078 0.412109,-0.695312 0.421875,-0.683594 0.451172,-0.673828 0.47461,-0.652344 0.49414,-0.642578 0.50586,-0.619141 0.537109,-0.611328 0.548828,-0.589843 0.56836,-0.578125 0.580078,-0.558594 0.599609,-0.53711 0.621094,-0.52539 0.632812,-0.50586 0.652344,-0.472656 0.664063,-0.464844 0.673828,-0.441406 0.685547,-0.419922 0.705078,-0.40039 0.714843,-0.378907 0.728516,-0.347656 0.736328,-0.335937 0.748047,-0.306641 0.759766,-0.294922 0.757812,-0.261719 0.767578,-0.232421 0.78125,-0.220704 0.789063,-0.189453 0.789062,-0.167968 0.800782,-0.136719 0.800781,-0.126953 0.800781,-0.08398 0.800781,-0.07422 0.810547,-0.04102 0.814453,-0.02148 a 0.1322915,0.1322915 0 0 0 0.128907,-0.136719 0.1322915,0.1322915 0 0 0 -0.136719,-0.128906 z"
       id="path2"
       fill="none" stroke="param(outline) #000" stroke-width="param(outline-width) 1" />
    <path
       fill="none"
       stroke="param(outline) #000"
       stroke-width="param(outline-width) 1"
       d="m -48.251775,26.57294 0.815136,-0.0212 0.815135,-0.0423 0.804549,-0.074 0.80455,-0.0846 0.804549,-0.12694 0.804549,-0.13752 0.793963,-0.16926 0.793963,-0.19041 0.783377,-0.22215 0.772791,-0.23272 0.762204,-0.26446 0.762205,-0.2962 0.751618,-0.30677 0.741032,-0.33851 0.730446,-0.34908 0.71986,-0.38083 0.709274,-0.40198 0.688101,-0.42313 0.677516,-0.4443 0.666928,-0.46544 0.656343,-0.47603 0.635171,-0.50777 0.624585,-0.52892 0.60341,-0.5395 0.58224,-0.56065 0.57165,-0.58181 0.55048,-0.59239 0.5399,-0.61355 0.50814,-0.62413 0.49755,-0.64528 0.47637,-0.65586 0.45521,-0.67702 0.42345,-0.68759 0.41286,-0.69818 0.39169,-0.70875 0.37051,-0.72991 0.33876,-0.72991 0.32817,-0.75106 0.29641,-0.75107 0.27524,-0.76164 0.25407,-0.77223 0.22231,-0.7828 0.21173,-0.7828 0.17996,-0.79338 0.14821,-0.79338 0.13762,-0.80396 0.10586,-0.80396 0.0741,-0.80396 0.0529,-0.81453 0.0318,-0.81454 0.0106,-0.80396 -0.0212,-0.81454 -0.0423,-0.81453 -0.0741,-0.80396 -0.0847,-0.80396 -0.12704,-0.80396 -0.13762,-0.80396 -0.16938,-0.79338 -0.19055,-0.7828 -0.22231,-0.7828 -0.24348,-0.7828 -0.26465,-0.76165 -0.28583,-0.76164 -0.307,-0.75107 -0.33877,-0.74048 -0.34934,-0.72991 -0.3811,-0.70875 -0.40228,-0.70876 -0.42344,-0.69817 -0.44462,-0.67702 -0.46579,-0.66644 -0.48697,-0.64528 -0.49755,-0.6347 -0.52931,-0.62413 -0.53989,-0.60297 -0.56107,-0.59239 -0.58224,-0.560655 -0.59282,-0.560654 -0.614022,-0.528971 -0.635171,-0.507762 -0.645756,-0.497186 -0.656343,-0.476028 -0.677515,-0.454869 -0.677515,-0.433716 -0.709274,-0.401979 -0.709274,-0.391401 -0.71986,-0.370244 -0.741032,-0.338508 -0.741032,-0.327931 -0.762205,-0.296195 -0.762204,-0.275038 -0.772791,-0.253882 -0.783377,-0.222146 -0.783377,-0.211568 -0.793963,-0.179833 -0.793963,-0.148098 -0.804549,-0.137519 -0.80455,-0.105784 -0.804549,-0.07405 -0.815135,-0.05289 -0.815136,-0.03173 -0.804549,-0.01058"
       id="path3"
       fill="none" stroke="param(outline) #000" stroke-width="param(outline-width) 1" />
    <path
       fill="none"
       stroke="param(outline) #000"
       stroke-width="param(outline-width) 1"
       d="M 1e-5,-22.087702 V 0"
       id="path4"
       fill="none" stroke="param(outline) #000" stroke-width="param(outline-width) 1" />
    <path
       fill="none"
       stroke="param(outline) #000"
       stroke-width="param(outline-width) 1"
       d="m -26.60305,-48.226928 0.0212,0.803958 0.0423,0.814537 0.0741,0.803958 0.0953,0.814537 0.11645,0.803959 0.13762,0.79338 0.16938,0.79338 0.19055,0.79338 0.22231,0.782801 0.24348,0.772223 0.26466,0.761645 0.28582,0.761645 0.307,0.751066 0.33876,0.740488 0.35993,0.72991 0.37051,0.719331 0.40228,0.698174 0.42345,0.698174 0.44461,0.677018 0.4658,0.666439 0.48696,0.655861 0.50814,0.634704 0.51872,0.613547 0.53989,0.602969 0.56107,0.59239 0.58224,0.571234 0.60341,0.550077 0.60341,0.52892 0.63518,0.518341 0.64575,0.486607 0.65635,0.476028 0.67751,0.454871 0.6881,0.433714 0.69869,0.412558 0.70927,0.380822 0.73045,0.370244 0.73044,0.349087 0.75162,0.317352 0.75162,0.296196 0.76221,0.275038 0.77279,0.253881 0.78337,0.232725 0.78338,0.20099 0.79396,0.179833 0.80455,0.148097 0.79397,0.137519 0.80455,0.105784 0.81513,0.07405 0.80455,0.05289 0.81514,0.03173 0.81513,0.01058 0.80455,-0.02116 0.81514,-0.04231 0.81513,-0.07405 0.80455,-0.09521 0.80455,-0.116362 0.79396,-0.13752 0.79397,-0.169254 0.79396,-0.190411 0.78338,-0.222146 0.77279,-0.243304 0.77279,-0.26446 0.7622,-0.285617 0.74103,-0.306773 0.74104,-0.338509 0.73044,-0.349087 0.71986,-0.380823 0.70928,-0.401979 0.6881,-0.423136 0.6881,-0.444292 0.66693,-0.46545 0.64575,-0.486606 0.63517,-0.497185 0.62459,-0.52892 0.60341,-0.539499 0.59283,-0.560655 0.56106,-0.581812 0.56107,-0.59239 0.52931,-0.613547 0.50814,-0.634704 0.49755,-0.634704 0.47637,-0.666439 0.45521,-0.66644 0.43403,-0.687596 0.40228,-0.708752 0.39169,-0.708753 0.37051,-0.719331 0.33876,-0.740488 0.32817,-0.740488 0.29641,-0.761645 0.27525,-0.761645 0.25406,-0.772223 0.22231,-0.772223 0.21173,-0.79338 0.17996,-0.782801 0.14821,-0.803959 0.13762,-0.79338 0.10586,-0.803958 0.0741,-0.814537 0.0529,-0.803958 0.0318,-0.814537 0.0106,-0.814537"
       id="path5"
       fill="none" stroke="param(outline) #000" stroke-width="param(outline-width) 1" />
    <path
       fill="none"
       stroke="param(outline) #000"
       stroke-width="param(outline-width) 1"
       d="M 5e-6,22.087702 V 0"
       id="path6"
       fill="none" stroke="param(outline) #000" stroke-width="param(outline-width) 1" />
    <path
       fill="none"
       stroke="param(outline) #000"
       stroke-width="param(outline-width) 1"
       d="m -26.603055,48.226928 0.0212,-0.803958 0.0423,-0.814537 0.0741,-0.803958 0.0953,-0.814537 0.11645,-0.803959 0.13762,-0.79338 0.16938,-0.79338 0.19055,-0.79338 0.22231,-0.782801 0.24348,-0.772223 0.26466,-0.761645 0.28582,-0.761645 0.307,-0.751066 0.33876,-0.740488 0.35993,-0.72991 0.37051,-0.719331 0.40228,-0.698174 0.42345,-0.698174 0.44461,-0.677018 0.4658,-0.666439 0.48696,-0.655861 0.50814,-0.634704 0.51872,-0.613547 0.53989,-0.602969 0.56107,-0.59239 0.58224,-0.571234 0.60341,-0.550077 0.60341,-0.52892 0.63518,-0.518341 0.64575,-0.486607 0.65635,-0.476028 0.67751,-0.454871 0.6881,-0.433714 0.69869,-0.412558 0.70927,-0.380822 0.73045,-0.370244 0.73044,-0.349087 0.75162,-0.317352 0.75162,-0.296196 0.76221,-0.275038 0.77279,-0.253881 0.78337,-0.232725 0.78338,-0.20099 0.79396,-0.179833 0.80455,-0.148097 0.79397,-0.137519 0.80455,-0.105784 0.81513,-0.07405 0.80455,-0.05289 0.81514,-0.03173 0.81513,-0.01058 0.80455,0.02116 0.81514,0.04231 0.81513,0.07405 0.80455,0.09521 0.80455,0.116362 0.79396,0.13752 0.79397,0.169254 0.79396,0.190411 0.78338,0.222146 0.77279,0.243304 0.77279,0.26446 0.7622,0.285617 0.74103,0.306773 0.74104,0.338509 0.73044,0.349087 0.71986,0.380823 0.70928,0.401979 0.6881,0.423136 0.6881,0.444292 0.66693,0.46545 0.64575,0.486606 0.63517,0.497185 0.62459,0.52892 0.60341,0.539499 0.59283,0.560655 0.56106,0.581812 0.56107,0.59239 0.52931,0.613547 0.50814,0.634704 0.49755,0.634704 0.47637,0.666439 0.45521,0.66644 0.43403,0.687596 0.40228,0.708752 0.39169,0.708753 0.37051,0.719331 0.33876,0.740488 0.32817,0.740488 0.29641,0.761645 0.27525,0.761645 0.25406,0.772223 0.22231,0.772223 0.21173,0.79338 0.17996,0.782801 0.14821,0.803959 0.13762,0.79338 0.10586,0.803958 0.0741,0.814537 0.0529,0.803958 0.0318,0.814537 0.0106,0.814537"
       id="path7"
       fill="none" stroke="param(outline) #000" stroke-width="param(outline-width) 1" />
  </g>
</svg>
