<?xml version="1.0" encoding="UTF-8" standalone="no"?>
<!-- Created with Inkscape (http://www.inkscape.org/) -->

<svg
   width="48.844536mm"
   height="88.900993mm"
   viewBox="0 0 48.844536 88.900993"
   version="1.1"
   id="svg1"
   inkscape:version="1.3 (0e150ed6c4, 2023-07-21)"
   sodipodi:docname="luva.svg"
   xmlns:inkscape="http://www.inkscape.org/namespaces/inkscape"
   xmlns:sodipodi="http://sodipodi.sourceforge.net/DTD/sodipodi-0.dtd"
   xmlns="http://www.w3.org/2000/svg"
   xmlns:svg="http://www.w3.org/2000/svg">
  <sodipodi:namedview
     id="namedview1"
     pagecolor="#505050"
     bordercolor="#ffffff"
     borderopacity="1"
     inkscape:showpageshadow="0"
     inkscape:pageopacity="0"
     inkscape:pagecheckerboard="1"
     inkscape:deskcolor="#505050"
     inkscape:document-units="mm"
     showgrid="false"
     inkscape:zoom="0.73139029"
     inkscape:cx="230.38315"
     inkscape:cy="320.62225"
     inkscape:window-width="1920"
     inkscape:window-height="1017"
     inkscape:window-x="-8"
     inkscape:window-y="-8"
     inkscape:window-maximized="1"
     inkscape:current-layer="layer1" />
  <defs
     id="defs1">
    <pattern
       id="EMFhbasepattern"
       patternUnits="userSpaceOnUse"
       width="6"
       height="6"
       x="0"
       y="0" />
  </defs>
  <g
     inkscape:label="Camada 1"
     inkscape:groupmode="layer"
     id="layer1"
     transform="translate(-44.05229,-63.596511)">
    <path
       fill="none" stroke="param(outline) #000" stroke-width="param(outline-width) 1"
       d="M 81.087987,131.7056 V 84.176849"
       id="path1" />
    <path
       fill="none" stroke="param(outline) #000" stroke-width="param(outline-width) 1"
       d="M 55.532961,132.11816 V 84.176849"
       id="path2" />
    <path
       fill="none" stroke="param(outline) #000" stroke-width="param(outline-width) 1"
       d="m 92.764536,152.36521 -0.01059,-0.79338 -0.04234,-0.7828 -0.06352,-0.7828 -0.08469,-0.7828 -0.116448,-0.7828 -0.148207,-0.77223 -0.169378,-0.77222 -0.190553,-0.77222 -0.211722,-0.75107 -0.243483,-0.75107 -0.264655,-0.74048 -0.285827,-0.74049 -0.317584,-0.71933 -0.338757,-0.71933 -0.359931,-0.69818 -0.381101,-0.68759 -0.412861,-0.67702 -0.423447,-0.66644 -0.455205,-0.64528 -0.465794,-0.63471 -0.486963,-0.61354 -0.518723,-0.60297 -0.529307,-0.58181 -0.550481,-0.57124 -0.561068,-0.55008 -0.582239,-0.52891 -0.603412,-0.50777 -0.624586,-0.4866 -0.635169,-0.47603 -0.645758,-0.4443 -0.666927,-0.42313 -0.66693,-0.41256 -0.698688,-0.38082 -0.698688,-0.35967 -0.709274,-0.3385 -0.730446,-0.31736 -0.730445,-0.28561 -0.741032,-0.26446 -0.751618,-0.24331 -0.762206,-0.21156 -0.762204,-0.19042 -0.77279,-0.16925 -0.783378,-0.1481 -0.783376,-0.11636 -0.783378,-0.0846 -0.783376,-0.0635 -0.783377,-0.0423 -0.793963,-0.0106 -0.793963,0.0106 -0.783377,0.0423 -0.783377,0.0635 -0.783377,0.0846 -0.783377,0.11636 -0.783377,0.1481 -0.77279,0.16925 -0.762205,0.19042 -0.762205,0.21156 -0.751618,0.24331 -0.741032,0.26446 -0.730446,0.28561 -0.730446,0.31736 -0.709274,0.3385 -0.698687,0.35967 -0.688102,0.38082 -0.677515,0.41256 -0.666929,0.42313 -0.645756,0.4443 -0.635171,0.47603 -0.624585,0.4866 -0.603411,0.50777 -0.58224,0.52891 -0.561067,0.55008 -0.550481,0.57124 -0.529309,0.58181 -0.518723,0.60297 -0.486964,0.61354 -0.465791,0.63471 -0.455206,0.64528 -0.423447,0.66644 -0.412861,0.67702 -0.381102,0.68759 -0.35993,0.69818 -0.338757,0.71933 -0.317586,0.71933 -0.285826,0.74049 -0.264655,0.74048 -0.243482,0.75107 -0.211723,0.75107 -0.190551,0.77222 -0.169379,0.77222 -0.148207,0.77223 -0.116447,0.7828 -0.08469,0.7828 -0.06352,0.7828 -0.04234,0.7828 -0.01059,0.79338"
       id="path3" />
    <path
       fill="none" stroke="param(outline) #000" stroke-width="param(outline-width) 1"
       d="m 44.184582,63.728803 0.01059,0.79338 0.04234,0.782801 0.06352,0.782802 0.08469,0.782801 0.116448,0.782802 0.148206,0.772223 0.169379,0.772223 0.190551,0.772223 0.211724,0.751067 0.243482,0.751066 0.264654,0.740488 0.285827,0.740488 0.317585,0.719331 0.338758,0.719331 0.35993,0.698175 0.381102,0.687596 0.412861,0.677017 0.423447,0.666439 0.455205,0.645283 0.465792,0.634704 0.486964,0.613547 0.518722,0.602969 0.529309,0.581812 0.550481,0.571233 0.561067,0.550077 0.58224,0.52892 0.603412,0.507763 0.624584,0.486607 0.635171,0.476028 0.645757,0.444292 0.666929,0.423136 0.666929,0.412558 0.698687,0.380822 0.698688,0.359666 0.709274,0.338509 0.730446,0.317352 0.730445,0.285616 0.741033,0.264461 0.751618,0.243303 0.762205,0.211568 0.762204,0.190411 0.772791,0.169254 0.783377,0.148098 0.783377,0.116362 0.783377,0.08463 0.783377,0.06347 0.783377,0.04231 0.793963,0.01058 0.793963,-0.01058 0.783377,-0.04231 0.783376,-0.06347 0.783376,-0.08463 0.783378,-0.116362 0.783376,-0.148098 0.772792,-0.169254 0.762204,-0.190411 0.762204,-0.211568 0.75162,-0.243303 0.741032,-0.264461 0.730446,-0.285616 0.730446,-0.317352 0.709273,-0.338509 0.698688,-0.359666 0.698688,-0.380822 0.666927,-0.412558 0.66693,-0.423136 0.645756,-0.444292 0.635172,-0.476028 0.624583,-0.486607 0.603411,-0.507763 0.582242,-0.52892 0.561065,-0.550077 0.550482,-0.571233 0.529309,-0.581812 0.518724,-0.602969 0.486963,-0.613547 0.465791,-0.634704 0.455205,-0.645283 0.423447,-0.666439 0.412861,-0.677017 0.381103,-0.687596 0.359929,-0.698175 0.338759,-0.719331 0.317585,-0.719331 0.285827,-0.740488 0.264654,-0.740488 0.24348,-0.751066 0.211725,-0.751067 0.190551,-0.772223 0.169378,-0.772223 0.148209,-0.772223 0.116446,-0.782802 0.08469,-0.782801 0.06352,-0.782802 0.04235,-0.782801 0.01059,-0.79338"
       id="path4" />
  </g>
</svg>
