<?xml version="1.0" encoding="UTF-8" standalone="no"?>
<!-- Created with Inkscape (http://www.inkscape.org/) -->

<svg
   xmlns:dc="http://purl.org/dc/elements/1.1/"
   xmlns:cc="http://creativecommons.org/ns#"
   xmlns:rdf="http://www.w3.org/1999/02/22-rdf-syntax-ns#"
   xmlns:svg="http://www.w3.org/2000/svg"
   xmlns="http://www.w3.org/2000/svg"
   xmlns:sodipodi="http://sodipodi.sourceforge.net/DTD/sodipodi-0.dtd"
   xmlns:inkscape="http://www.inkscape.org/namespaces/inkscape"
   width="144.52599mm"
   height="144.44133mm"
   viewBox="0 0 512.09995 511.79999"
   id="svg2"
   version="1.1"
   inkscape:version="0.91 r13725"
   sodipodi:docname="01vazao.svg">
  <defs
     id="defs4" />
  <sodipodi:namedview
     id="base"
     pagecolor="#ffffff"
     bordercolor="#666666"
     borderopacity="1.0"
     inkscape:pageopacity="0.0"
     inkscape:pageshadow="2"
     inkscape:zoom="0.69460729"
     inkscape:cx="289.45958"
     inkscape:cy="99.169576"
     inkscape:document-units="px"
     inkscape:current-layer="layer1"
     showgrid="false"
     fit-margin-top="0"
     fit-margin-left="0"
     fit-margin-right="0"
     fit-margin-bottom="0"
     inkscape:window-width="1600"
     inkscape:window-height="878"
     inkscape:window-x="-8"
     inkscape:window-y="-8"
     inkscape:window-maximized="1" />
  <metadata
     id="metadata7">
    <rdf:RDF>
      <cc:Work
         rdf:about="">
        <dc:format>image/svg+xml</dc:format>
        <dc:type
           rdf:resource="http://purl.org/dc/dcmitype/StillImage" />
        <dc:title></dc:title>
      </cc:Work>
    </rdf:RDF>
  </metadata>
  <g
     inkscape:label="Camada 1"
     inkscape:groupmode="layer"
     id="layer1"
     transform="translate(-29.664289,-27.890799)">
    <path
       inkscape:connector-curvature="0"
       id="path4159"
       d="m 232.01428,502.89433 c -2.88533,-0.77847 -4.04716,-2.21988 -4.04888,-5.0232 -9e-4,-1.54011 0.13448,-2.01531 0.85496,-3 1.77245,-2.42241 1.07813,-2.26695 11.35901,-2.54334 18.2392,-0.49035 35.54179,-2.01507 51.08491,-4.50168 9.78408,-1.56525 14.65566,-2.55897 23.4,-4.77315 6.20381,-1.57089 9.46258,-2.59305 15.82077,-4.96248 9.98412,-3.72066 17.05356,-7.78881 21.86634,-12.58311 3.10509,-3.09318 4.15251,-4.86696 4.76535,-8.07 0.22671,-1.18479 0.54093,-2.49285 0.69834,-2.90679 0.37824,-0.99492 2.45664,-2.84916 3.84267,-3.42828 1.0038,-0.41943 1.22556,-0.41715 2.38164,0.0243 1.49868,0.57237 3.05712,2.00001 3.31803,3.0396 0.10155,0.40458 0.11994,2.04042 0.0409,3.63522 -0.24825,5.0073 -2.18727,9.54411 -5.74452,13.44069 -4.56639,5.00193 -11.82969,9.75636 -21.03951,13.77201 -25.40504,11.07705 -59.82194,17.33637 -98.85,17.97756 -4.8675,0.08 -9.255,0.0362 -9.75,-0.0974 z m 279.44999,-28.52679 c -1.2375,-0.29229 -4.68,-1.14849 -7.65,-1.90269 -10.18659,-2.58675 -17.5926,-4.00746 -44.04426,-8.44908 -18.43701,-3.09582 -23.61801,-4.05534 -32.75574,-6.06642 -12.88077,-2.83482 -19.73745,-5.33769 -26.1,-9.52725 -2.32521,-1.53105 -2.49816,-1.59156 -5.55,-1.94169 -19.61027,-2.24976 -37.8326,-9.16989 -53.70278,-20.39427 -6.81912,-4.82292 -15.41362,-12.95706 -20.79907,-19.68501 -8.13099,-10.15791 -15.13508,-22.96149 -19.5759,-35.78505 -0.94528,-2.72964 -1.30061,-3.41784 -1.83525,-3.55449 -0.85769,-0.21924 -22.66122,0.4404 -29.48699,0.89211 l -5.25,0.34743 -0.10064,1.5 c -0.13496,2.0115 0.71798,11.34 1.64581,18 1.48689,10.67301 1.27692,14.83176 -0.85658,16.96524 -1.03448,1.03449 -3.18034,2.08476 -4.25946,2.08476 -0.79647,0 -3.02202,-1.82598 -3.60898,-2.96103 -0.54013,-1.04451 -1.21951,-5.83389 -1.96309,-13.83897 -0.76176,-8.2008 -1.71968,-20.90352 -1.95692,-25.95 -0.2372,-5.04549 -1.01049,-16.75227 -1.20882,-18.3 -0.0846,-0.66 -0.34871,-3.8325 -0.58696,-7.05 -0.50352,-6.79959 -0.89258,-11.82468 -1.49816,-19.35 -0.239,-2.97 -0.64076,-8.0325 -0.8928,-11.25 -0.25203,-3.2175 -0.59477,-7.5375 -0.76164,-9.6 -0.16687,-2.0625 -0.44106,-5.8425 -0.6093,-8.4 -0.5534,-8.41204 -1.22961,-16.57125 -1.79017,-21.6 -0.30347,-2.7225 -0.71064,-7.245 -0.90481,-10.05 -0.19417,-2.805 -0.44179,-6.2475 -0.55026,-7.65 l -0.19722,-2.55 -31.04874,0 -31.04873,0 -0.20242,1.65 c -0.11133,0.9075 -0.34857,3.4725 -0.5272,5.7 -0.3551,4.42814 -0.99107,12.00322 -1.67492,19.95 -0.43116,5.01042 -0.63652,7.51163 -1.50244,18.3 -0.23838,2.97 -0.56503,6.8175 -0.72588,8.55 -0.16084,1.7325 -0.36885,4.7025 -0.46223,6.6 -0.21098,4.28709 -0.61349,9.44685 -1.35736,17.4 -0.55662,5.95122 -1.15672,13.4763 -1.7943,22.5 -0.37713,5.33757 -1.04321,13.50387 -2.25116,27.6 -0.2333,2.7225 -0.50554,6.0975 -0.60498,7.5 -0.0994,1.4025 -0.30696,3.8325 -0.46117,5.4 -0.15421,1.5675 -0.41821,4.875 -0.58668,7.35 -0.32363,4.75455 -0.79269,7.851 -1.28434,8.47836 -0.16308,0.20811 -1.21457,0.65724 -2.33663,0.99804 l -2.04012,0.61968 -1.42883,-0.63204 c -0.78586,-0.34761 -1.89508,-0.98766 -2.46493,-1.4223 l -1.03608,-0.79026 0.18509,-4.22574 c 0.1018,-2.32416 0.32134,-5.57574 0.48787,-7.22574 0.3365,-3.33399 1.09768,-12.49038 1.34672,-16.2 0.0886,-1.32 0.0474,-2.57913 -0.0917,-2.79807 -0.16106,-0.25359 -1.32981,-0.49335 -3.22083,-0.66069 -7.78092,-0.68859 -16.64396,-3.28422 -20.93121,-6.12993 -3.8883,-2.5809 -5.66379,-5.33535 -6.92381,-10.74135 -0.8814,-3.78165 -1.31572,-4.72527 -2.63771,-5.73078 -3.46323,-2.63418 -11.04589,-3.9288 -25.72531,-4.39215 -24.372834,-0.76938 -35.217908,-0.88764 -39.513293,-0.43092 -4.091581,0.43503 -20.977482,1.18062 -26.486711,1.16946 -4.396679,-0.009 -6.03582,-1.12443 -6.486802,-4.41471 -0.145794,-1.06368 -0.03209,-1.75494 0.499702,-3.03801 0.621825,-1.50024 0.821434,-1.70721 2.062772,-2.13882 1.999881,-0.69534 9.455863,-1.27233 19.224327,-1.4877 4.7025,-0.10368 10.774047,-0.40185 13.492329,-0.66261 4.043423,-0.3879 7.453643,-0.44286 18.749999,-0.30225 17.968537,0.22365 27.703997,0.85632 36.157677,2.34969 9.64623,1.70403 13.96713,3.38898 16.9484,6.60912 1.7142,1.85154 2.40361,3.34239 3.58628,7.75536 1.77245,6.61362 4.41229,8.70684 13.21531,10.47888 2.31807,0.46662 8.71643,0.77472 8.92844,0.42993 0.17213,-0.27996 0.73341,-6.63111 1.72016,-19.46445 0.32986,-4.29 0.79945,-10.2975 1.04353,-13.35 0.52996,-6.62768 1.30366,-16.48522 1.50696,-19.2 0.0803,-1.0725 0.34476,-4.4475 0.58765,-7.5 0.54867,-6.89538 1.18211,-14.96476 1.95466,-24.9 0.96394,-12.39674 1.53995,-19.658 1.93954,-24.45 0.22039,-2.64292 0.26534,-4.64307 0.10892,-4.84668 -0.1822,-0.23718 -2.41802,-0.3875 -7.07809,-0.47589 -7.69273,-0.14592 -8.97369,-0.41455 -10.55275,-2.21299 -0.93334,-1.06301 -1.08428,-1.7646 -0.92821,-4.31444 0.10155,-1.65913 0.67762,-2.82769 1.73634,-3.52217 0.66119,-0.43372 1.71648,-0.55457 5.91875,-0.67783 l 5.1141,-0.15 0.17066,-41.24999 c 0.15023,-36.31486 0.23234,-41.78838 0.68631,-45.75 1.70033,-14.83837 5.24032,-25.41449 12.37028,-36.95759 12.1779,-19.715522 32.03778,-34.14983 53.52275,-38.900738 8.42595,-1.863207 6.88931,-1.805253 50.84108,-1.917477 30.88763,-0.07887 40.24416,-0.186138 40.4204,-0.46341 0.12613,-0.198435 0.2314,-1.751244 0.23392,-3.450687 0.005,-3.46965 0.2655,-4.236816 1.93533,-5.702946 1.38195,-1.213365 3.15812,-1.706373 4.5238,-1.255662 2.27907,0.752163 3.53985,3.32592 3.96717,8.098506 l 0.2283,2.55 59.99999,0 60,0 0.21858,-2.85 c 0.25893,-3.375813 0.6015,-4.726797 1.48272,-5.847069 1.45815,-1.853766 5.35254,-2.594208 6.9666,-1.324572 1.51326,1.190313 2.06268,2.790897 2.25585,6.571641 l 0.17625,3.45 32.4,0.03 c 31.46961,0.02913 38.50596,0.200649 41.26986,1.00602 0.94695,0.275934 1.12788,0.495837 1.575,1.91424 0.97689,3.099063 0.36927,5.692743 -1.69176,7.221549 -0.84597,0.627498 -0.88788,0.628374 -37.2,0.778206 l -36.3531,0.15 -0.0424,34.199999 c -0.0282,22.72566 0.0596,34.32582 0.26172,34.575 0.24024,0.29623 7.86198,0.375 36.2823,0.375 39.78987,0 36.87618,-0.15012 38.50386,1.98388 0.61911,0.81166 0.89022,1.5598 0.98664,2.72239 0.17823,2.149 -0.81549,3.64173 -3.20574,4.81555 l -1.68639,0.82817 -35.31009,0.15 c -22.95423,0.0975 -35.40927,0.25497 -35.59353,0.45 -0.15591,0.165 -0.33762,1.2089 -0.4038,2.31979 -0.13149,2.20687 -0.624,2.97343 -2.94282,4.58037 l -1.09884,0.76149 -1.9845,-0.61296 c -2.97294,-0.91824 -4.41642,-2.76067 -4.41642,-5.63707 0,-2.02411 5.26197,-1.86178 -60.19917,-1.85711 -36.70739,0.003 -59.45861,0.11234 -59.78741,0.28831 -0.33792,0.18085 -0.65811,0.9311 -0.8811,2.06461 -0.48333,2.45677 -1.34334,3.59871 -3.58365,4.75843 l -1.88365,0.97511 -1.75203,-0.88442 c -2.46658,-1.24513 -3.01298,-2.03863 -3.01298,-4.37558 0,-1.23139 -0.14823,-2.03635 -0.42617,-2.31428 -0.34659,-0.3466 -2.65717,-0.46511 -12.375,-0.63473 -15.45337,-0.26973 -21.02734,0.0969 -27.39883,1.80234 -12.40793,3.32113 -20.27276,12.68671 -23.44235,27.91558 -0.65614,3.15255 -0.67964,3.86101 -0.78255,23.6007 -0.0758,14.5447 -0.0116,20.46441 0.22502,20.74956 0.22997,0.2771 1.37396,0.42967 3.74464,0.49942 2.88889,0.085 3.54351,0.19642 4.25937,0.72496 0.92143,0.68032 2.47763,3.25167 2.48886,4.11243 0.0108,0.82659 -1.06233,2.73623 -2.14734,3.82124 -1.63593,1.63593 -2.61627,1.89904 -7.74565,2.07882 l -4.65,0.16298 -0.0874,2.31093 c -0.0481,1.27101 0.26211,5.99601 0.68924,10.5 0.42713,4.50399 0.96721,11.76657 1.20019,16.13907 0.51477,9.66098 1.28173,20.0751 2.25357,30.6 0.15997,1.7325 0.49127,5.5125 0.73622,8.4 0.24494,2.8875 0.72034,8.355 1.05643,12.15 0.86216,9.735 1.49322,18.27396 1.67392,22.65 0.0852,2.0625 0.22762,4.34436 0.31657,5.07078 l 0.16172,1.32078 5.89976,-0.20406 c 3.24486,-0.11223 7.51975,-0.32667 9.49975,-0.47655 1.98,-0.14988 6.80625,-0.28116 10.725,-0.29175 5.49044,-0.0147 7.12472,-0.10524 7.12378,-0.3942 -6e-4,-0.20625 -0.40573,-2.4291 -0.90014,-4.93965 -1.09276,-5.54892 -1.94395,-12.099 -2.41765,-18.60447 -0.40984,-5.6283 -0.22079,-23.44253 0.29853,-28.13088 1.32146,-11.93005 3.57377,-22.55516 6.88146,-32.46276 0.93621,-2.80425 1.36767,-4.50756 1.17239,-4.62831 -0.16995,-0.10509 -2.14823,-0.62138 -4.39618,-1.1473 -6.70213,-1.56801 -8.14297,-2.05741 -9.2158,-3.13024 -1.57981,-1.57981 -2.06986,-4.99104 -0.97,-6.7522 1.53237,-2.45371 6.21661,-2.41597 15.80035,0.12731 1.54095,0.40893 2.96143,0.7435 3.1566,0.7435 0.19518,0 1.0752,-1.45125 1.95561,-3.225 7.60756,-15.3269 17.95547,-27.88662 31.08152,-37.72499 5.36529,-4.02145 9.15168,-6.35573 15.60453,-9.62 12.59103,-6.36938 25.24896,-10.15959 40.04999,-11.99232 6.23502,-0.77205 20.95965,-0.93267 27.6,-0.30107 27.7623,2.64062 51.82119,13.59427 70.20345,31.96256 26.24355,26.22362 38.64834,67.99688 33.71958,113.55082 -3.17763,29.36904 -14.10582,54.19029 -32.18169,73.09446 -1.83774,1.92198 -3.33966,3.60948 -3.33759,3.75 0.005,0.33576 7.66212,5.3487 13.34625,8.73741 8.70891,5.19204 16.63497,9.21075 24.70569,12.52638 1.54314,0.63396 2.87259,1.32696 2.95434,1.54002 0.1671,0.43545 -8.74938,21.61341 -9.37959,22.27788 -0.34695,0.36582 -1.13853,0.13353 -5.5923,-1.64103 -6.09414,-2.42817 -16.94304,-7.75938 -22.88814,-11.24739 -5.51718,-3.23697 -14.259,-9.03627 -19.5,-12.93627 -2.31,-1.71894 -4.36248,-3.22533 -4.56111,-3.34752 -0.20631,-0.12693 -2.07078,0.6354 -4.35,1.77861 -11.67522,5.85609 -23.17854,9.5172 -36.20175,11.52171 -2.0421,0.31431 -3.77352,0.6321 -3.84762,0.70623 -0.21306,0.21306 0.47106,0.3699 9.21048,2.11179 8.0448,1.60344 12.97524,2.51412 23.7,4.37754 2.8875,0.50172 6.2625,1.10145 7.5,1.33275 1.2375,0.23133 4.8825,0.9138 8.1,1.51665 8.45028,1.58325 11.96922,2.2398 13.5,2.51871 3.72168,0.67812 17.25423,3.51519 21.72612,4.55484 5.55531,1.29156 6.99933,1.94382 8.69868,3.92913 1.2381,1.44642 1.30227,2.01873 0.47433,4.23156 -0.65103,1.74 -1.75977,2.99349 -3.09366,3.49746 -1.06617,0.40281 -1.36017,0.38388 -4.10547,-0.26451 z m -94.09131,-55.52073 c 5.39541,-0.44703 9.47889,-1.12242 14.44131,-2.38863 5.16414,-1.31766 10.70538,-3.28143 10.56147,-3.74286 -0.2865,-0.91866 -11.52501,-6.87093 -17.30931,-9.16758 -2.48418,-0.98634 -3.19668,-1.16517 -3.37962,-0.84822 -2.54421,4.40799 -4.75866,7.83336 -7.43562,11.50161 -1.80618,2.475 -3.28461,4.60125 -3.28545,4.725 -0.003,0.30249 2.11515,0.27627 6.40722,-0.0793 z m -17.57604,-2.54511 c 0.68355,-1.07217 3.25047,-4.68342 5.70429,-8.025 5.42307,-7.3851 6.15855,-8.52807 5.9646,-9.26964 -0.0826,-0.31578 0.52815,-2.60421 1.35714,-5.08545 l 1.50723,-4.51131 -0.5097,-1.3347 c -2.98146,-7.80681 -23.69328,-15.381 -50.7062,-18.54294 -8.54247,-0.99993 -21.71013,-1.98153 -26.58084,-1.98153 l -1.7643,0 0.48162,1.275 c 0.97164,2.5722 5.20254,10.95111 6.85467,13.575 4.30524,6.83763 11.2197,14.6352 17.25885,19.46304 9.7197,7.77021 21.13923,13.11363 32.99999,15.4413 6.44049,1.26396 5.94417,1.33101 7.43265,-1.00377 z m 68.05605,-20.32557 c 16.23681,-16.62903 24.46197,-38.78862 25.58544,-68.93004 1.21359,-32.5593 -6.46764,-59.42554 -22.26393,-77.87146 -12.12597,-14.15996 -28.85136,-23.1628 -48.5856,-26.15232 -4.89978,-0.74227 -19.33503,-0.72565 -24.37461,0.0281 -18.69152,2.79548 -33.16433,9.88147 -45.74315,22.39618 -6.04752,6.01669 -10.49472,12.26641 -14.41278,20.25458 -5.55102,11.31744 -8.64769,23.3601 -10.26,39.9 -0.50533,5.18397 -0.50296,24.85734 0.004,29.84999 0.74585,7.35114 2.20504,16.31439 3.20296,19.67484 l 0.44934,1.51305 7.88001,0.37044 c 37.34441,1.75569 63.40844,7.88733 77.02871,18.12129 1.91079,1.43574 1.95666,1.45209 2.36157,0.84228 0.22713,-0.34206 0.72105,-0.6219 1.09767,-0.6219 0.95274,0 8.481,2.45055 13.3521,4.34628 11.20182,4.35954 21.69195,10.23336 29.68998,16.6245 1.2375,0.98886 2.38839,1.80498 2.5575,1.81359 0.16914,0.009 1.26318,-0.96312 2.4312,-2.15937 z m -269.43869,77.877 c -21.43813,-1.00698 -37.41933,-3.10845 -55.73535,-7.32909 -19.15467,-4.4139 -30.46072,-8.65818 -39.87346,-14.9685 -6.161525,-4.13067 -10.07866,-7.86627 -12.367864,-11.79465 -1.713066,-2.9397 -3.04146,-9.10371 -2.460645,-11.41785 0.246888,-0.9837 1.813275,-2.78649 2.916957,-3.35724 2.059608,-1.06506 5.22515,-0.10134 6.22247,1.89438 0.308097,0.61653 0.856014,2.2614 1.217589,3.65526 0.918918,3.5424 1.897253,5.19228 4.759363,8.02623 4.96524,4.9164 11.71434,8.61141 23.02095,12.60348 5.93796,2.09655 17.49438,5.19948 23.36554,6.27369 20.34755,3.72297 34.41076,5.3181 49.98445,5.66958 13.4596,0.30375 16.91133,0.79404 18.78555,2.66826 1.65218,1.65219 1.6179,4.45473 -0.0792,6.47157 -1.48714,1.76739 -1.727,1.80837 -10.21648,1.74615 -4.25694,-0.0312 -8.5499,-0.0948 -9.5399,-0.14127 z m 2.55,-24.88872 c -1.2375,-0.0588 -4.815,-0.31401 -7.95,-0.56721 -28.51939,-2.30334 -48.78037,-7.66785 -61.77246,-16.35546 -7.20061,-4.81497 -10.37753,-9.87021 -10.37753,-16.51317 0,-1.90269 0.11171,-2.43855 0.65142,-3.12468 1.83583,-2.33388 7.07901,-2.65185 8.16637,-0.49524 0.21976,0.43587 0.69575,1.73748 1.05777,2.89248 1.64079,5.23491 6.1679,9.07182 15.5258,13.15875 22.29107,9.73527 62.35667,13.19517 99.4412,8.58735 19.88752,-2.47107 35.81683,-7.02789 44.78326,-12.81093 3.95854,-2.55312 6.20671,-5.33838 7.50116,-9.29319 0.93177,-2.84679 2.40719,-3.99198 5.14303,-3.99198 3.75141,0 5.42296,2.73975 4.63975,7.60476 -2.05045,12.73662 -20.86534,22.91547 -51.60977,27.92085 -13.34139,2.17206 -22.96455,2.90622 -39.45,3.00972 -7.425,0.0466 -14.5125,0.0367 -15.75,-0.0219 z m 24.45,-66.37749 c -1.43873,-0.66069 -2.05704,-1.31415 -2.7409,-2.89677 -0.42999,-0.9951 -0.55258,-2.75472 -0.75165,-10.78902 -0.13083,-5.28 -0.4383,-12.435 -0.68326,-15.9 -0.28084,-3.97257 -0.47841,-12.06318 -0.53478,-21.9 -0.0828,-14.44846 -0.0503,-15.67159 0.44067,-16.56992 0.79233,-1.44979 2.09308,-2.01857 4.60119,-2.01199 5.08258,0.0134 5.43012,1.50627 5.82718,25.03191 0.14342,8.4975 0.3942,16.5975 0.55728,18 0.16309,1.4025 0.30501,7.49406 0.3154,13.53678 l 0.0189,10.98681 -1.35231,1.2465 c -2.12197,1.95597 -3.51877,2.26626 -5.69769,1.2657 z m -33.9481,-47.04093 c -1.09891,-0.32421 -1.60309,-0.64362 -1.73763,-1.10079 -0.73371,-2.49327 -0.43683,-13.7275 0.91682,-34.69407 1.43413,-22.21298 1.61031,-25.10091 1.95822,-32.1 l 0.35046,-7.05 1.08011,-1.14972 c 1.4567,-1.55057 2.41205,-2.00028 4.24938,-2.00028 2.19299,0 3.67914,0.90314 4.63171,2.81469 0.64972,1.30383 0.74888,1.90301 0.74785,4.51922 -6e-4,1.65885 -0.26789,5.04109 -0.59387,7.51609 -0.36497,2.77101 -0.59505,6.27288 -0.59882,9.11421 -0.003,2.53781 -0.20125,5.91281 -0.43973,7.49999 -0.41471,2.76003 -0.55483,4.94744 -1.52042,23.7358 -0.2332,4.5375 -0.56505,10.95 -0.73745,14.25 l -0.31345,6 -1.6961,1.575 c -1.59927,1.48506 -1.78326,1.57362 -3.22254,1.55079 -0.83954,-0.0132 -2.22308,-0.22971 -3.07454,-0.48093 z m -50.15033,-13.61713 c -1.84378,-1.05733 -2.45157,-2.15569 -2.45157,-4.43037 0,-1.91578 0.56248,-3.45178 2.36181,-6.44954 0.80808,-1.3463 1.83822,-3.19032 2.28921,-4.09782 1.54472,-3.10836 3.3861,-5.60179 4.54191,-6.15026 1.26673,-0.6011 2.90687,-0.50496 4.9959,0.29284 1.20954,0.46194 1.43537,0.69395 1.84472,1.89534 0.88156,2.58724 0.72286,3.16685 -2.74677,10.03133 -3.45638,6.83827 -4.41721,8.12956 -6.84974,9.20558 -1.83408,0.8113 -2.0853,0.79258 -3.98547,-0.2971 z m 140.19216,-16.41815 c -2.22997,-0.77108 -3.13934,-1.54515 -5.52009,-4.69877 -3.76682,-4.98967 -4.50872,-6.72194 -3.92354,-9.16121 0.21229,-0.88493 0.68469,-1.7557 1.24177,-2.28894 0.8215,-0.78634 1.08518,-0.85996 3.05363,-0.8526 2.64895,0.01 3.59748,0.5498 6.68661,3.80602 2.8448,2.99867 4.31789,5.8847 4.31789,8.45948 0,1.1493 -0.16869,2.08377 -0.44818,2.4828 -0.49577,0.70781 -3.232,2.7993 -3.64201,2.78385 -0.1429,-0.005 -0.93763,-0.24417 -1.76608,-0.53063 z M 115.29153,286.2826 c -1.5028,-0.68254 -2.33026,-2.22807 -2.3579,-4.40407 -0.0406,-3.19997 1.72756,-4.53492 16.18066,-12.21592 2.96999,-1.57839 7.01183,-3.75097 8.98184,-4.82797 3.91114,-2.13819 5.94115,-2.76779 7.28599,-2.25972 1.1994,0.45312 2.43034,1.715 3.26101,3.34296 0.70574,1.38313 0.71102,1.44721 0.22232,2.7 -0.84623,2.16936 -1.54118,2.87855 -4.5493,4.64256 -1.59603,0.93593 -5.56024,3.29674 -8.80937,5.24624 -6.87579,4.12553 -11.46489,6.49038 -14.69539,7.57282 -2.72016,0.91145 -3.86732,0.95366 -5.51986,0.2031 z m 156.99653,-16.25794 c -2.50038,-0.58758 -5.7897,-2.62081 -8.40699,-5.19662 -2.08945,-2.05632 -2.91679,-3.60068 -2.91679,-5.44461 0,-5.62862 6.36334,-5.81659 13.57918,-0.40114 2.84065,2.1319 3.92082,3.7796 3.92082,5.9809 0,3.76423 -2.60656,5.90033 -6.17622,5.06147 z M 129.63693,253.85098 c -2.86333,-0.60381 -3.60577,-1.5864 -3.64982,-4.83048 -0.0307,-2.25823 0.77167,-3.43125 3.16589,-4.62852 2.98841,-1.49441 9.75938,-2.82528 14.42584,-2.83546 2.31291,-0.005 2.52749,0.0499 3.48712,0.89243 0.56241,0.4938 1.30777,1.5608 1.65635,2.37111 0.63353,1.47266 0.63355,1.47386 0.0467,2.80052 -0.77049,1.74181 -1.65399,2.8372 -2.74235,3.40001 -1.1486,0.59396 -11.32242,2.85648 -13.46238,2.99384 -0.90749,0.0582 -2.2248,-0.0153 -2.92735,-0.16345 z"
       style="fill:#006df0;fill-opacity:1" />
    <path
       inkscape:connector-curvature="0"
       id="path4157"
       d="m 517.01427,460.08001 c -5.89416,-2.37603 -17.15475,-7.92756 -22.8,-11.24052 -5.52045,-3.23973 -14.26188,-9.03906 -19.5,-12.9369 -2.31,-1.71894 -4.36248,-3.22533 -4.56111,-3.34752 -0.20631,-0.12693 -2.07078,0.6354 -4.35,1.77861 -9.69846,4.86459 -19.13439,8.16183 -29.47233,10.29861 -9.60753,1.98579 -17.45472,2.58732 -30.26973,2.32029 -10.9272,-0.22767 -16.12674,-0.85542 -25.2971,-3.05406 -16.57581,-3.97419 -32.56281,-11.9883 -45.47991,-22.79862 -17.31004,-14.48676 -30.18916,-35.27574 -36.51976,-58.94877 -0.68393,-2.5575 -1.36371,-4.9875 -1.51064,-5.4 -0.5026,-1.41108 -2.09142,-10.19265 -2.67291,-14.77347 -1.04344,-8.21976 -1.299,-13.75014 -1.12968,-24.44565 0.18846,-11.90319 0.6527,-16.88253 2.49691,-26.78088 2.04495,-10.97578 4.47854,-18.70797 9.87793,-31.38491 7.38669,-17.34283 18.93416,-32.18472 33.58381,-43.16508 5.36529,-4.02145 9.15168,-6.35573 15.60453,-9.62 12.59103,-6.36938 25.24896,-10.15959 40.04999,-11.99232 6.23502,-0.77205 20.95965,-0.93267 27.6,-0.30107 27.7623,2.64062 51.82119,13.59427 70.20345,31.96256 26.24355,26.22362 38.64834,67.99688 33.71958,113.55082 -3.17763,29.36904 -14.10582,54.19029 -32.18169,73.09446 -1.83774,1.92198 -3.33966,3.60948 -3.33759,3.75 0.005,0.33576 7.66212,5.3487 13.34625,8.73741 8.70891,5.19204 16.63497,9.21075 24.70569,12.52638 1.54314,0.63396 2.87259,1.32696 2.95434,1.54002 0.14196,0.36996 -8.66226,21.44772 -9.28413,22.22673 -0.16467,0.20625 -0.45159,0.36687 -0.63762,0.35691 -0.18606,-0.01 -2.49828,-0.88881 -5.13828,-1.95303 z m -99.64131,-41.2332 c 5.39541,-0.44703 9.47889,-1.12242 14.44131,-2.38863 5.16414,-1.31766 10.70538,-3.28143 10.56147,-3.74286 -0.15384,-0.49329 -5.35077,-3.53217 -9.96147,-5.82492 -5.31648,-2.64372 -12.12453,-5.37975 -16.95,-6.81183 -2.0625,-0.61212 -3.8532,-1.20363 -3.97932,-1.31451 -0.12615,-0.11088 1.40028,-5.0529 3.39207,-10.98225 1.99179,-5.92938 3.71769,-11.11818 3.83538,-11.53068 0.32199,-1.12875 1.17648,-1.08222 5.55111,0.30216 14.68965,4.64865 27.14265,10.96953 37.91427,19.2444 1.68495,1.29438 3.17334,2.35344 3.30753,2.35344 0.13419,0 1.19964,-0.97875 2.36766,-2.175 16.23681,-16.62903 24.46197,-38.78862 25.58544,-68.93004 1.21359,-32.5593 -6.46764,-59.42554 -22.26393,-77.87146 -12.12597,-14.15996 -28.85136,-23.1628 -48.5856,-26.15232 -4.89978,-0.74227 -19.33503,-0.72565 -24.37461,0.0281 -18.69152,2.79548 -33.16433,9.88147 -45.74315,22.39618 -6.04752,6.01669 -10.49472,12.26641 -14.41278,20.25458 -5.55102,11.31744 -8.64769,23.3601 -10.26,39.9 -0.50533,5.18397 -0.50296,24.85734 0.004,29.84999 0.74895,7.38171 2.22496,16.43316 3.20839,19.67493 0.24609,0.81129 0.44892,1.76163 0.45072,2.11185 0.005,1.01697 2.33301,8.03931 3.96564,11.96322 4.50531,10.82808 9.97602,19.18602 17.48454,26.71224 7.92786,7.94655 16.14392,13.44555 26.01845,17.41404 6.4944,2.61006 16.59465,4.99617 23.7846,5.61891 2.70711,0.23448 11.33418,0.17592 14.65869,-0.0995 z M 375.70654,162.93863 c -0.10623,-0.17188 -19.35168,-9.89198 -42.7677,-21.60021 -23.41601,-11.70824 -42.57456,-21.38908 -42.57456,-21.51298 0,-0.33498 86.13489,-43.339399 86.35842,-43.116022 0.10536,0.105285 0.22845,8.212299 0.27348,18.015585 l 0.0819,17.824157 44.31806,0.076 44.3181,0.076 0.0804,7.12401 0.0804,7.12401 -44.33043,0.076 -44.33042,0.076 -0.15825,18 c -0.087,9.9 -0.18828,18.03375 -0.225,18.075 -0.17955,0.20172 -0.95412,0.0381 -1.12449,-0.23751 z"
       style="fill:#000000" />
  </g>
</svg>
