<?xml version="1.0" encoding="UTF-8" standalone="no"?>
<!-- Created with Inkscape (http://www.inkscape.org/) -->

<svg
   width="61.048122mm"
   height="121.34924mm"
   viewBox="0 0 61.048121 121.34924"
   version="1.1"
   id="svg1"
   inkscape:version="1.3.2 (091e20e, 2023-11-25, custom)"
   sodipodi:docname="reducao.svg"
   xmlns:inkscape="http://www.inkscape.org/namespaces/inkscape"
   xmlns:sodipodi="http://sodipodi.sourceforge.net/DTD/sodipodi-0.dtd"
   xmlns="http://www.w3.org/2000/svg"
   xmlns:svg="http://www.w3.org/2000/svg">
  <sodipodi:namedview
     id="namedview1"
     pagecolor="#505050"
     bordercolor="#ffffff"
     borderopacity="1"
     inkscape:showpageshadow="0"
     inkscape:pageopacity="0"
     inkscape:pagecheckerboard="1"
     inkscape:deskcolor="#505050"
     inkscape:document-units="mm"
     showgrid="false"
     inkscape:zoom="0.73139029"
     inkscape:cx="363.69091"
     inkscape:cy="190.73264"
     inkscape:window-width="1920"
     inkscape:window-height="1017"
     inkscape:window-x="-8"
     inkscape:window-y="-8"
     inkscape:window-maximized="1"
     inkscape:current-layer="layer1" />
  <defs
     id="defs1">
    <pattern
       id="EMFhbasepattern"
       patternUnits="userSpaceOnUse"
       width="6"
       height="6"
       x="0"
       y="0" />
  </defs>
  <g
     inkscape:label="Camada 1"
     inkscape:groupmode="layer"
     id="layer1"
     transform="translate(-142.26699,-97.905349)">
    <path
       style="fill:none;stroke:#000000;stroke-width:0.264583;stroke-linecap:round;stroke-linejoin:round;stroke-miterlimit:4;stroke-dasharray:none;stroke-opacity:1"
       d="m 203.18279,219.1223 -0.0106,-0.88924 -0.0423,-0.87865 -0.0635,-0.87865 -0.0846,-0.88924 -0.11637,-0.87866 -0.14809,-0.86806 -0.15868,-0.86807 -0.19041,-0.86806 -0.22215,-0.85748 -0.2433,-0.8469 -0.26446,-0.84689 -0.28562,-0.83631 -0.31735,-0.82572 -0.33851,-0.81514 -0.35966,-0.81513 -0.39141,-0.79397 -0.40197,-0.78337 -0.43372,-0.77279 -0.45487,-0.76221 -0.47603,-0.74103 -0.49718,-0.73045 -0.51834,-0.71986 -0.52892,-0.70927 -0.56066,-0.67751 -0.58181,-0.67752 -0.59239,-0.64576 -0.61355,-0.63516 -0.6347,-0.614 -0.65586,-0.60341 -0.66644,-0.58224 -0.6876,-0.55048 -0.69817,-0.5399 -0.71933,-0.51872 -0.72991,-0.49755 -0.75107,-0.47638 -0.75107,-0.45521 -0.77222,-0.43403 -0.79338,-0.40227 -0.79338,-0.39169 -0.80396,-0.35993 -0.81454,-0.33876 -0.82511,-0.31758 -0.83569,-0.28583 -0.84628,-0.26465 -0.84627,-0.24349 -0.85685,-0.22231 -0.86743,-0.19055 -0.86743,-0.15879 -0.878,-0.14821 -0.86743,-0.11645 -0.88859,-0.0847 -0.878,-0.0635 -0.87801,-0.0423 -0.88859,-0.0106 -0.88858,0.0106 -0.87801,0.0423 -0.87801,0.0635 -0.88858,0.0847 -0.86743,0.11645 -0.87801,0.14821 -0.86743,0.15879 -0.86743,0.19055 -0.85685,0.22231 -0.84627,0.24349 -0.84627,0.26465 -0.83569,0.28583 -0.82512,0.31758 -0.81454,0.33876 -0.80395,0.35993 -0.79338,0.39169 -0.79338,0.40227 -0.76165,0.43403 -0.76164,0.45521 -0.75107,0.47638 -0.72991,0.49755 -0.71933,0.51872 -0.69818,0.5399 -0.68759,0.55048 -0.66644,0.58224 -0.65586,0.60341 -0.63471,0.614 -0.61354,0.63516 -0.59239,0.64576 -0.58182,0.67752 -0.56065,0.67751 -0.52892,0.70927 -0.51834,0.71986 -0.49719,0.73045 -0.47603,0.74103 -0.45486,0.76221 -0.43372,0.77279 -0.40198,0.78337 -0.3914,0.79397 -0.35967,0.81513 -0.3385,0.81514 -0.31736,0.82572 -0.28561,0.83631 -0.26446,0.84689 -0.24331,0.8469 -0.22214,0.85748 -0.19042,0.86806 -0.15867,0.86807 -0.1481,0.86806 -0.11636,0.87866 -0.0846,0.88924 -0.0635,0.87865 -0.0423,0.87865 -0.0106,0.88924"
       id="path1" />
    <path
       style="fill:none;stroke:#000000;stroke-width:0.264583;stroke-linecap:round;stroke-linejoin:round;stroke-miterlimit:4;stroke-dasharray:none;stroke-opacity:1"
       d="m 152.66036,196.31968 20.13069,-67.85737"
       id="path2" />
    <path
       style="fill:none;stroke:#000000;stroke-width:0.264583;stroke-linecap:round;stroke-linejoin:round;stroke-miterlimit:4;stroke-dasharray:none;stroke-opacity:1"
       d="m 192.23415,195.73744 -19.4431,-67.27513"
       id="path3" />
    <path
       style="fill:none;stroke:#000000;stroke-width:0.264583;stroke-linecap:round;stroke-linejoin:round;stroke-miterlimit:4;stroke-dasharray:none;stroke-opacity:1"
       d="m 142.39931,98.03764 0.0106,0.88924 0.0423,0.87865 0.0635,0.87865 0.0846,0.88924 0.11636,0.87866 0.1481,0.86806 0.15867,0.86807 0.19042,0.86806 0.22214,0.85748 0.24331,0.8469 0.26446,0.84689 0.28561,0.83631 0.31736,0.82572 0.3385,0.81514 0.35967,0.81513 0.3914,0.79397 0.40198,0.78337 0.43372,0.77279 0.45486,0.76221 0.47603,0.74103 0.49719,0.73045 0.51834,0.71986 0.52892,0.70927 0.56065,0.67751 0.58182,0.67752 0.59239,0.64576 0.61354,0.63517 0.63471,0.61399 0.65586,0.60342 0.66644,0.58224 0.68759,0.55048 0.69818,0.53989 0.71933,0.51873 0.72991,0.49755 0.75107,0.47637 0.75106,0.45521 0.77223,0.43403 0.79338,0.40228 0.79338,0.39168 0.80395,0.35993 0.81454,0.33876 0.82512,0.31759 0.83569,0.28583 0.84627,0.26465 0.84627,0.24348 0.85685,0.22231 0.86743,0.19055 0.86743,0.15879 0.87801,0.14821 0.86743,0.11645 0.88858,0.0847 0.87801,0.0635 0.87801,0.0423 0.88858,0.0106 0.88859,-0.0106 0.87801,-0.0423 0.878,-0.0635 0.88859,-0.0847 0.86743,-0.11645 0.878,-0.14821 0.86743,-0.15879 0.86743,-0.19055 0.85685,-0.22231 0.84627,-0.24348 0.84628,-0.26465 0.83569,-0.28583 0.82511,-0.31759 0.81454,-0.33876 0.80396,-0.35993 0.79338,-0.39168 0.79338,-0.40228 0.77222,-0.43403 0.75107,-0.45521 0.75107,-0.47637 0.72991,-0.49755 0.71933,-0.51873 0.69817,-0.53989 0.6876,-0.55048 0.66644,-0.58224 0.65586,-0.60342 0.6347,-0.61399 0.61355,-0.63517 0.59239,-0.64576 0.58181,-0.67752 0.56066,-0.67751 0.52892,-0.70927 0.51834,-0.71986 0.49718,-0.73045 0.47603,-0.74103 0.45487,-0.76221 0.43372,-0.77279 0.40197,-0.78337 0.39141,-0.79397 0.35966,-0.81513 0.33851,-0.81514 0.31735,-0.82572 0.28562,-0.83631 0.26446,-0.84689 0.2433,-0.8469 0.22215,-0.85748 0.19041,-0.86806 0.15868,-0.86807 0.14809,-0.86806 0.11637,-0.87866 0.0846,-0.88924 0.0635,-0.87865 0.0423,-0.87865 0.0106,-0.88924"
       id="path5" />
  </g>
</svg>
